<?xml version="1.0" encoding="UTF-8" standalone="no"?>
<svg
   width="214.36143"
   height="84.000328"
   viewBox="-4 -4 174.981 68.56859"
   version="1.1"
   id="svg4"
   sodipodi:docname="logo_bmftr.svg"
   inkscape:version="1.4 (86a8ad7, 2024-10-11)"
   xmlns:inkscape="http://www.inkscape.org/namespaces/inkscape"
   xmlns:sodipodi="http://sodipodi.sourceforge.net/DTD/sodipodi-0.dtd"
   xmlns="http://www.w3.org/2000/svg"
   xmlns:svg="http://www.w3.org/2000/svg">
  <defs
     id="defs4" />
  <sodipodi:namedview
     id="namedview4"
     pagecolor="#ffffff"
     bordercolor="#000000"
     borderopacity="0.25"
     inkscape:showpageshadow="2"
     inkscape:pageopacity="0.0"
     inkscape:pagecheckerboard="0"
     inkscape:deskcolor="#d1d1d1"
     inkscape:zoom="2.6564344"
     inkscape:cx="70.583336"
     inkscape:cy="66.066002"
     inkscape:window-width="1920"
     inkscape:window-height="1009"
     inkscape:window-x="3832"
     inkscape:window-y="62"
     inkscape:window-maximized="1"
     inkscape:current-layer="svg4" />
  <path
     d="m 14.563,8.5651026 c 0.028,-0.231 0.045,-0.47 0.045,-0.714 0,-0.133 0,-0.288 -0.016,-0.463 2.059,-0.03 3.864,-1.512 3.864,-3.217 0,-0.868 -0.566,-1.523 -0.885,-1.914 0.071,-0.016 0.144,-0.032 0.217,-0.05 0.301,0.262 1.157,1.194 1.157,2.37 0,2.046 -2.045,3.946 -4.382,3.988 m -2.073,-7.125 A 1.404,1.404 0 0 0 12.232,0.82710258 c 0.008,-0.208 0.093,-0.408 0.43,-0.243 -0.183,0.186 -0.042,0.51500002 -0.042,0.51500002 0,0 0.372,-0.17300002 0.294,-0.41800002 0.552,0.132 0.155,0.87200002 -0.424,0.75900002 m -0.479,1.05 a 2.156,2.156 0 0 0 -0.43,-0.856 c -0.181,-0.215 -0.482,-0.47 -0.886,-0.47 -0.185,0 -0.495,0.087 -0.692,0.17 -0.074,-0.134 -0.217,-0.45700002 -0.217,-0.60300002 0,-0.15 0.253,-0.301 0.737,-0.301 1.066,0 1.702,0.481 1.702,1.28900002 0,0.284 -0.112,0.542 -0.214,0.771 m 2.737,13.7360004 a 0.63,0.63 0 0 1 0.256,0.047 c 0.307,0.834 1.49,2.41 1.54,2.477 l 0.01,0.014 0.017,-0.004 c 0.29,-0.047 1.031,-0.158 1.65,-0.158 h 0.015 c 0.067,0 0.144,0 0.192,0.047 0.04,0.04 0.06,0.11 0.06,0.211 0,0.154 -0.065,0.417 -0.143,0.53 -0.217,-0.237 -0.57,-0.343 -1.133,-0.343 -0.17,0 -0.37,0.05 -0.479,0.08 l -0.044,0.009 -0.05,0.013 0.325,0.326 c 0.502,0.501 0.935,0.934 0.935,1.222 0,0.174 -0.169,0.4 -0.324,0.5 -0.034,-0.528 -0.567,-1.234 -1.086,-1.63 l -0.045,-0.033 -0.008,0.186 c -0.007,0.126 -0.019,0.315 -0.019,0.518 0,1.005 -0.102,1.158 -0.45,1.158 a 0.635,0.635 0 0 1 -0.186,-0.035 c 0.196,-0.242 0.274,-0.562 0.274,-1.124 l -0.003,-0.26 -0.003,-0.208 c 0,-0.23 0.023,-0.4 0.042,-0.538 l 0.01,-0.078 -0.054,-0.007 a 5.638,5.638 0 0 0 -0.698,-0.064 c -0.496,0 -0.833,0.046 -1.077,0.275 -0.16,-0.13 -0.326,-0.354 -0.326,-0.496 0,-0.21 0.13,-0.226 0.301,-0.226 0.087,0 0.168,0.012 0.28,0.026 0.213,0.032 0.534,0.08 1.196,0.08 h 0.042 l -0.014,-0.041 c -0.167,-0.48 -0.628,-1.178 -1.366,-2.076 0.066,-0.24 0.131,-0.398 0.363,-0.398 m -6.376,2.474 -0.014,0.04 H 8.4 c 0.66,0 0.983,-0.047 1.197,-0.08 0.111,-0.013 0.192,-0.025 0.279,-0.025 0.17,0 0.301,0.016 0.301,0.226 0,0.142 -0.165,0.366 -0.325,0.496 -0.245,-0.23 -0.582,-0.275 -1.077,-0.275 -0.233,0 -0.536,0.041 -0.699,0.064 l -0.025,0.003 -0.03,0.004 0.01,0.078 c 0.02,0.137 0.043,0.308 0.043,0.538 l -0.003,0.209 -0.003,0.259 c 0,0.562 0.078,0.882 0.275,1.124 a 0.648,0.648 0 0 1 -0.187,0.035 c -0.35,0 -0.45,-0.153 -0.45,-1.158 0,-0.203 -0.01,-0.392 -0.018,-0.518 l -0.01,-0.187 -0.044,0.034 c -0.518,0.396 -1.053,1.102 -1.085,1.63 -0.156,-0.1 -0.325,-0.326 -0.325,-0.5 0,-0.288 0.433,-0.72 0.935,-1.222 l 0.326,-0.326 -0.095,-0.023 a 2.026,2.026 0 0 0 -0.48,-0.079 c -0.562,0 -0.914,0.106 -1.132,0.343 -0.078,-0.113 -0.143,-0.376 -0.143,-0.53 0,-0.1 0.02,-0.17 0.06,-0.21 0.048,-0.048 0.125,-0.048 0.192,-0.048 h 0.014 c 0.62,0 1.362,0.111 1.65,0.158 l 0.018,0.004 0.01,-0.014 c 0.051,-0.068 1.233,-1.643 1.54,-2.477 a 0.617,0.617 0 0 1 0.256,-0.047 c 0.232,0 0.297,0.157 0.364,0.398 -0.74,0.898 -1.2,1.596 -1.367,2.076 M 5.177,4.5771026 c 0,-1.176 0.857,-2.108 1.158,-2.37 0.072,0.018 0.145,0.034 0.217,0.05 -0.32,0.391 -0.886,1.046 -0.886,1.914 0,1.722 1.84,3.218 3.925,3.218 a 5.12,5.12 0 0 0 -0.021,0.462 c 0,0.254 0.014,0.491 0.04,0.714 -2.358,-0.014 -4.433,-1.927 -4.433,-3.988 m 15.808,3.629 c 1.058,1.672 1.885,1.644 3.135,1.644 -1.034,-0.792 -1.718,-1.808 -2.044,-2.326 l -1.931,-3.09 a 4.57,4.57 0 0 0 -1.421,-2.51 c 0.249,-0.095 0.455,-0.194 0.579,-0.288 -1.261,0 -2.51,-0.64000002 -3.199,-0.64000002 -0.442,0 -0.726,0.26400002 -0.726,0.61300002 0.028,0.39 0.429,0.785 1.17,0.785 0.167,0 0.382,-0.022 0.617,-0.06 0.4,0.558 0.724,1.063 0.724,1.784 0,1.353 -1.617,2.407 -3.25,2.407 -0.093,0 -0.18,-0.004 -0.273,-0.01 -0.147,-0.336 -0.64,-0.899 -0.64,-1.539 0,-1.075 0.701,-1.953 0.701,-3.018 0,-0.662 -0.322,-1.07200002 -0.446,-1.24200002 0.2,-0.186 0.42,-0.414 0.471,-0.571 -0.117,0.05 -0.255,0.056 -0.457,0.056 -0.782,0 -1.42,-0.203 -2.042,-0.203 -0.356,0 -0.45,0.11 -0.45,0.214 0,0.038 0.004,0.077 0.015,0.096 a 2.094,2.094 0 0 0 -0.404,-0.113 3.154,3.154 0 0 0 -0.592,-0.052 c -0.756,0 -1.024,0.317 -1.024,0.588 0,0.23 0.18,0.64900002 0.386,0.97000002 0.294,-0.15 0.648,-0.25 0.81,-0.25 0.401,0 0.758,0.382 0.947,0.835 -0.27,0.033 -0.322,0.044 -0.594,0.044 -0.737,0 -1.237,-0.263 -1.34,-0.263 -0.01,0 -0.03,0.005 -0.03,0.021 0,0.104 0.209,0.376 0.62,0.526 0.542,0.198 1.354,0.281 1.49,0.304 0,0.023 -0.138,0.28 -0.292,0.33 a 0.167,0.167 0 0 1 -0.096,0.002 c -0.566,-0.111 -0.724,-0.159 -1.442,-0.431 -0.021,-0.009 -0.035,0.005 -0.035,0.027 0,0.284 0.735,0.911 1.394,1.152 -0.55,0.702 -1.237,1.421 -1.561,2.517 -0.092,0.006 -0.18,0.01 -0.273,0.01 -1.633,0 -3.25,-1.054 -3.25,-2.407 0,-0.721 0.323,-1.226 0.724,-1.785 0.235,0.04 0.45,0.061 0.618,0.061 0.74,0 1.14,-0.395 1.17,-0.785 0,-0.349 -0.284,-0.61300002 -0.727,-0.61300002 -0.688,0 -1.937,0.64000002 -3.2,0.64000002 0.125,0.094 0.332,0.193 0.58,0.287 a 4.575,4.575 0 0 0 -1.42,2.51 l -1.932,3.091 c -0.325,0.518 -1.011,1.534 -2.045,2.326 1.25,0 2.078,0.028 3.136,-1.644 l 0.99,-1.585 c 0.073,0.206 0.163,0.406 0.27,0.602 l -1.97,3.1520004 c -0.327,0.522 -1.007,1.528 -2.045,2.325 1.25,0 2.078,0.03 3.136,-1.642 L 5.212,8.3441026 c 0.127,0.135 0.26,0.268 0.4,0.394 L 3.22,12.568103 c -0.328,0.523 -1.004,1.527 -2.044,2.323 1.25,0 2.078,0.03 3.135,-1.642 L 6.643,9.5151026 c 0.154,0.097 0.31,0.191 0.474,0.28 L 4.27,14.351103 c -0.329,0.523 -1.004,1.524 -2.044,2.324 1.25,0 2.078,0.029 3.135,-1.643 l 2.931,-4.692 c 0.174,0.067 0.35,0.13 0.528,0.187 l -3.312,5.302 c -0.323,0.516 -1.014,1.536 -2.043,2.324 1.249,0 2.078,0.028 3.135,-1.643 l 3.53,-5.649 c 0.036,0.006 0.071,0.011 0.106,0.019 0.096,0.305 0.163,0.59 0.163,0.874 0,1.776 -1.165,3.344 -2.563,4.554 0.09,0.04 0.246,0.053 0.39,0.053 0.288,0 0.474,-0.016 0.605,-0.039 -0.324,0.737 -1.02,1.688 -1.371,2.18 a 10.207,10.207 0 0 0 -1.56,-0.147 c -0.456,0 -0.508,0.266 -0.508,0.505 0,0.414 0.194,0.744 0.42,0.927 0.084,-0.211 0.255,-0.494 1.097,-0.494 l 0.085,0.005 c -0.246,0.274 -1.017,0.897 -1.017,1.4 0,0.332 0.364,0.83 0.845,0.83 -0.028,-0.107 -0.025,-0.205 -0.025,-0.28 0,-0.406 0.36,-0.882 0.665,-1.215 -0.01,0.1 -0.004,0.09 -0.004,0.205 0,0.961 0.087,1.403 0.697,1.403 0.3,0 0.506,-0.164 0.577,-0.213 -0.396,-0.365 -0.417,-0.652 -0.417,-1.191 l 0.004,-0.467 a 2.62,2.62 0 0 0 -0.02,-0.405 c 0.217,-0.03 0.306,-0.03 0.475,-0.03 0,0 0.866,-0.07 1.076,0.382 0.235,-0.216 0.577,-0.52 0.577,-0.856 0,-0.222 -0.105,-0.473 -0.552,-0.473 -0.17,0 -0.702,0.103 -1.147,0.103 0.12,-0.265 0.652,-1.044 1.114,-1.609 0.07,0.22 0.178,0.456 0.42,0.65 0.034,-0.364 0.247,-1.513 0.815,-2.186 0.066,0.455 0.155,0.92 0.155,1.903 0,2.39 -0.575,4.155 -1.794,4.492 0.159,0.275 0.494,0.524 0.842,0.524 0.447,0 0.69,-0.505 0.937,-0.981 0.13,0.351 0.486,1.213 0.843,1.213 0.357,0 0.715,-0.862 0.844,-1.213 0.247,0.476 0.49,0.981 0.937,0.981 0.348,0 0.683,-0.249 0.842,-0.524 -1.22,-0.337 -1.795,-2.102 -1.795,-4.492 0,-0.982 0.09,-1.448 0.155,-1.903 0.57,0.673 0.783,1.822 0.815,2.186 a 1.28,1.28 0 0 0 0.421,-0.65 c 0.461,0.565 0.994,1.344 1.114,1.61 -0.445,0 -0.978,-0.104 -1.147,-0.104 -0.446,0 -0.551,0.251 -0.551,0.473 0,0.336 0.342,0.64 0.577,0.856 0.208,-0.451 1.076,-0.382 1.076,-0.382 0.168,0 0.257,0 0.476,0.03 -0.021,0.118 -0.022,0.281 -0.021,0.405 l 0.003,0.467 c 0,0.539 -0.02,0.826 -0.417,1.19 0.071,0.05 0.278,0.214 0.577,0.214 0.61,0 0.698,-0.442 0.698,-1.403 0,-0.116 0.003,-0.106 -0.005,-0.205 0.305,0.333 0.665,0.809 0.665,1.216 0,0.074 0.004,0.172 -0.026,0.28 0.482,0 0.847,-0.5 0.847,-0.832 0,-0.502 -0.771,-1.125 -1.02,-1.4 l 0.086,-0.004 c 0.843,0 1.014,0.283 1.098,0.494 a 1.2,1.2 0 0 0 0.42,-0.927 c 0,-0.239 -0.052,-0.505 -0.508,-0.505 -0.436,0 -1.101,0.064 -1.56,0.147 -0.352,-0.492 -1.046,-1.443 -1.371,-2.18 0.13,0.023 0.318,0.039 0.606,0.039 0.144,0 0.3,-0.014 0.39,-0.053 -1.4,-1.21 -2.564,-2.778 -2.564,-4.554 0,-0.284 0.067,-0.569 0.163,-0.874 0.034,-0.008 0.071,-0.013 0.106,-0.019 l 3.53,5.65 c 1.057,1.67 1.886,1.642 3.135,1.642 -1.029,-0.788 -1.72,-1.808 -2.043,-2.324 l -3.313,-5.302 c 0.18,-0.056 0.356,-0.12 0.53,-0.187 l 2.93,4.692 c 1.057,1.672 1.886,1.643 3.135,1.643 -1.04,-0.8 -1.715,-1.8 -2.044,-2.324 L 17.007,9.7941026 c 0.161,-0.089 0.32,-0.183 0.472,-0.28 l 2.333,3.7340004 c 1.058,1.672 1.885,1.642 3.135,1.642 -1.04,-0.796 -1.715,-1.8 -2.044,-2.324 L 18.511,8.7361026 c 0.14,-0.125 0.275,-0.258 0.4,-0.393 l 1.696,2.7140004 c 1.057,1.671 1.885,1.642 3.135,1.642 -1.04,-0.797 -1.717,-1.803 -2.045,-2.325 L 19.728,7.2221026 c 0.106,-0.196 0.196,-0.396 0.27,-0.602 z m 9.408,-7.175 h 3.615 V 21.687103 h -3.615 z"
     id="path1" />
  <path
     fill="#ff0000"
     d="m 30.393,21.687103 h 3.615 v 20.656 h -3.615 z"
     id="path2" />
  <path
     fill="#ffcc00"
     d="m 30.393,42.343103 h 3.615 v 20.656 h -3.615 z"
     id="path3" />
  <path
     d="m 46.703,2.9111026 c 0,-1.326 -0.806,-2.18200002 -2.839,-2.18200002 H 42.217 V 9.2811026 h 1.748 c 2.045,0 2.962,-0.98 2.962,-2.318 0,-1.14 -0.732,-1.883 -1.612,-2.057 v -0.025 c 0.744,-0.198 1.389,-0.78 1.389,-1.97 z m -1.091,0.037 c 0,0.979 -0.607,1.586 -1.76,1.586 h -0.558 v -2.95 h 0.57 c 1.203,0 1.748,0.583 1.748,1.364 z m 0.161,3.941 c 0,0.98 -0.545,1.5 -1.81,1.5 h -0.669 v -3 h 0.732 c 1.115,0 1.747,0.583 1.747,1.5 z m 5.701,1.723 h 0.025 v 0.669 h 0.917 v -5.949 h -1.004 v 4.549 c -0.198,0.247 -0.595,0.656 -1.202,0.656 -0.67,0 -0.992,-0.396 -0.992,-1.375 v -3.83 h -1.003 v 3.904 c 0,1.611 0.656,2.194 1.71,2.194 0.905,0 1.438,-0.608 1.55,-0.818 z m 4.697,-4.573 c 0.694,0 1.029,0.408 1.029,1.412 v 3.83 h 1.004 v -3.904 c 0,-1.611 -0.67,-2.194 -1.735,-2.194 -0.93,0 -1.463,0.608 -1.574,0.818 H 54.87 v -0.669 h -0.917 v 5.949 h 1.004 v -4.586 c 0.198,-0.248 0.607,-0.656 1.214,-0.656 z m 5.615,4.498 c -0.694,0 -1.314,-0.545 -1.314,-2.18 0,-1.686 0.731,-2.281 1.66,-2.281 0.36,0 0.596,0.099 0.769,0.21 v 3.669 a 1.329,1.329 0 0 1 -1.115,0.582 z m 1.177,0.112 h 0.025 v 0.632 h 0.917 V 0.40710258 l -1.004,0.112 V 3.3691026 a 2.23,2.23 0 0 0 -0.843,-0.148 c -1.264,0 -2.627,0.768 -2.627,3.172 0,2.17 0.954,3.037 2.082,3.037 0.942,0 1.338,-0.595 1.45,-0.781 z m 4.412,-4.648 c 0.632,0 0.967,0.484 0.967,1.302 0,0.186 -0.013,0.347 -0.025,0.433 h -2.156 c 0.05,-1.115 0.508,-1.735 1.214,-1.735 z m 2.008,4.722 -0.372,-0.706 c -0.136,0.136 -0.545,0.52 -1.252,0.52 -1.004,0 -1.549,-0.656 -1.61,-2.045 h 3.036 c 0.037,-0.285 0.074,-0.644 0.074,-1.152 0,-1.425 -0.694,-2.157 -1.822,-2.157 -1.24,0 -2.268,0.942 -2.268,3.05 0,2.242 0.942,3.197 2.442,3.197 1.127,0 1.61,-0.533 1.772,-0.707 z m 4.214,-4.908 c -0.199,-0.198 -0.595,-0.632 -1.512,-0.632 -0.967,0 -1.723,0.657 -1.723,1.537 0,0.818 0.446,1.301 1.19,1.772 l 0.372,0.236 c 0.57,0.36 0.867,0.558 0.867,1.128 0,0.384 -0.322,0.681 -0.917,0.681 -0.644,0 -1.016,-0.384 -1.202,-0.582 l -0.484,0.793 c 0.236,0.248 0.72,0.682 1.674,0.682 1.214,0 1.896,-0.731 1.896,-1.673 0,-0.88 -0.496,-1.364 -1.302,-1.847 l -0.371,-0.223 c -0.533,-0.322 -0.781,-0.57 -0.781,-1.016 0,-0.347 0.285,-0.632 0.818,-0.632 0.558,0 0.905,0.347 1.04,0.495 z m 3.569,0.26 c 0.62,0 0.892,0.41 0.892,1.376 v 3.83 h 1.004 v -3.99 a 3.22,3.22 0 0 0 -0.05,-0.62 c 0.224,-0.26 0.596,-0.595 1.14,-0.595 0.67,0 1.03,0.409 1.03,1.375 v 3.83 h 1.003 v -3.99 c 0,-1.414 -0.62,-2.108 -1.809,-2.108 -0.768,0 -1.314,0.459 -1.574,0.794 -0.273,-0.533 -0.768,-0.794 -1.438,-0.794 -0.818,0 -1.326,0.546 -1.487,0.818 h -0.025 v -0.669 h -0.917 v 5.949 h 1.004 v -4.586 c 0.174,-0.21 0.558,-0.62 1.227,-0.62 z m 7.027,-2.18 c 0.397,0 0.67,-0.298 0.67,-0.72 0,-0.40800002 -0.273,-0.70600002 -0.67,-0.70600002 -0.409,0 -0.681,0.298 -0.681,0.70700002 0,0.421 0.272,0.718 0.681,0.718 z m 0.496,1.437 h -1.004 v 5.949 h 1.004 z m 3.755,0.707 c 0.694,0 1.029,0.408 1.029,1.412 v 3.83 h 1.004 v -3.904 c 0,-1.611 -0.67,-2.194 -1.735,-2.194 -0.93,0 -1.463,0.608 -1.574,0.818 h -0.025 v -0.669 h -0.917 v 5.949 h 1.004 v -4.586 c 0.198,-0.248 0.607,-0.656 1.214,-0.656 z m 4.04,-2.145 c 0.397,0 0.67,-0.297 0.67,-0.718 0,-0.41000002 -0.273,-0.70700002 -0.67,-0.70700002 -0.408,0 -0.681,0.298 -0.681,0.70700002 0,0.421 0.273,0.718 0.682,0.718 z m 0.496,1.438 h -1.003 v 5.949 h 1.004 z m 4.536,0.483 c -0.198,-0.198 -0.595,-0.632 -1.512,-0.632 -0.966,0 -1.722,0.657 -1.722,1.537 0,0.818 0.446,1.301 1.19,1.772 l 0.371,0.236 c 0.57,0.36 0.868,0.558 0.868,1.128 0,0.384 -0.322,0.681 -0.917,0.681 -0.645,0 -1.017,-0.384 -1.203,-0.582 l -0.483,0.793 c 0.236,0.248 0.719,0.682 1.673,0.682 1.215,0 1.896,-0.731 1.896,-1.673 0,-0.88 -0.495,-1.364 -1.3,-1.847 l -0.373,-0.223 c -0.533,-0.322 -0.78,-0.57 -0.78,-1.016 0,-0.347 0.285,-0.632 0.817,-0.632 0.558,0 0.905,0.347 1.042,0.495 z m 4.04,5.354 -0.136,-0.805 c -0.099,0.062 -0.322,0.173 -0.62,0.173 -0.507,0 -0.706,-0.247 -0.706,-1.09 v -3.297 h 1.302 l 0.123,-0.818 h -1.425 v -1.66 h -0.892 l -0.112,1.66 -0.719,0.149 v 0.669 h 0.72 v 3.433 c 0,1.314 0.52,1.847 1.536,1.847 0.533,0 0.843,-0.199 0.93,-0.26 z m 2.826,-5.168 c 0.632,0 0.967,0.484 0.967,1.302 0,0.186 -0.012,0.347 -0.025,0.433 h -2.156 c 0.05,-1.115 0.508,-1.735 1.214,-1.735 z m 2.008,4.722 -0.372,-0.706 c -0.136,0.136 -0.545,0.52 -1.251,0.52 -1.004,0 -1.55,-0.656 -1.612,-2.045 h 3.037 c 0.037,-0.285 0.074,-0.644 0.074,-1.152 0,-1.425 -0.694,-2.157 -1.822,-2.157 -1.239,0 -2.268,0.942 -2.268,3.05 0,2.242 0.942,3.197 2.442,3.197 1.128,0 1.611,-0.533 1.772,-0.707 z m 3.954,-5.403 c -0.1,-0.038 -0.26,-0.1 -0.546,-0.1 -0.756,0 -1.078,0.447 -1.251,0.918 h -0.025 v -0.806 h -0.917 v 5.949 h 1.004 v -4.363 c 0.148,-0.396 0.483,-0.805 1.115,-0.805 0.273,0 0.446,0.074 0.496,0.099 z m 1.375,-1.426 c 0.397,0 0.67,-0.297 0.67,-0.718 0,-0.41000002 -0.273,-0.70700002 -0.67,-0.70700002 -0.409,0 -0.681,0.298 -0.681,0.70700002 0,0.421 0.272,0.718 0.681,0.718 z m 0.496,1.438 h -1.004 v 5.949 h 1.004 z m 4.76,5.28 h 0.024 v 0.669 h 0.917 v -5.949 h -1.004 v 4.549 c -0.198,0.247 -0.595,0.656 -1.202,0.656 -0.67,0 -0.991,-0.396 -0.991,-1.375 v -3.83 h -1.004 v 3.904 c 0,1.611 0.657,2.194 1.71,2.194 0.905,0 1.438,-0.608 1.55,-0.818 z m 4.709,-4.536 c 0.62,0 0.892,0.409 0.892,1.375 v 3.83 h 1.004 v -3.99 a 3.22,3.22 0 0 0 -0.05,-0.62 c 0.224,-0.26 0.595,-0.595 1.14,-0.595 0.67,0 1.03,0.409 1.03,1.375 v 3.83 h 1.003 v -3.99 c 0,-1.414 -0.62,-2.108 -1.81,-2.108 -0.768,0 -1.313,0.459 -1.573,0.794 -0.273,-0.533 -0.769,-0.794 -1.438,-0.794 -0.818,0 -1.326,0.546 -1.487,0.818 h -0.025 v -0.669 h -0.917 v 5.949 h 1.004 v -4.586 c 0.173,-0.21 0.558,-0.62 1.227,-0.62 z m -77.175,12.4680004 0.124,-0.818 h -1.339 v -1.066 c 0,-0.781 0.26,-1.041 0.732,-1.041 0.26,0 0.446,0.099 0.545,0.16 l 0.21,-0.83 a 1.695,1.695 0 0 0 -0.842,-0.223 c -0.88,0 -1.649,0.521 -1.649,1.822 v 1.19 l -0.718,0.136 v 0.67 h 0.718 v 5.13 h 1.004 v -5.13 z m 4.598,-2.529 c 0,-0.384 -0.26,-0.632 -0.595,-0.632 -0.335,0 -0.595,0.248 -0.595,0.632 0,0.384 0.26,0.632 0.595,0.632 0.335,0 0.595,-0.247 0.595,-0.632 z m -1.909,0 c 0,-0.384 -0.26,-0.632 -0.595,-0.632 -0.335,0 -0.594,0.248 -0.594,0.632 0,0.384 0.26,0.632 0.594,0.632 0.334,0 0.595,-0.247 0.595,-0.632 z m 1.525,6.99 h 0.025 v 0.67 h 0.917 v -5.95 h -1.004 v 4.55 c -0.199,0.247 -0.595,0.656 -1.202,0.656 -0.67,0 -0.992,-0.397 -0.992,-1.376 v -3.83 h -1.004 v 3.905 c 0,1.61 0.657,2.193 1.71,2.193 0.905,0 1.438,-0.607 1.55,-0.818 z m 5.217,-5.292 c -0.099,-0.037 -0.26,-0.099 -0.545,-0.099 -0.756,0 -1.078,0.446 -1.252,0.917 h -0.024 v -0.805 h -0.918 v 5.949 h 1.004 v -4.363 c 0.15,-0.397 0.484,-0.806 1.116,-0.806 0.272,0 0.446,0.075 0.496,0.1 z m 4.5,5.962 v -3.681 h 2.813 v -0.855 h -2.814 v -3.16 h 3.05 l 0.074,-0.856 h -4.202 v 8.552 z m 3.879,-2.975 c 0,2.231 1.003,3.123 2.317,3.123 1.301,0 2.38,-0.904 2.38,-3.123 0,-2.194 -1.004,-3.123 -2.318,-3.123 -1.276,0 -2.38,0.93 -2.38,3.123 z m 3.656,0 c 0,1.574 -0.484,2.231 -1.302,2.231 -0.818,0 -1.313,-0.657 -1.313,-2.23 0,-1.573 0.483,-2.269 1.3,-2.269 0.817,0 1.315,0.694 1.315,2.268 z m 5.044,-2.987 c -0.1,-0.037 -0.26,-0.099 -0.545,-0.099 -0.757,0 -1.079,0.446 -1.252,0.917 h -0.025 v -0.805 H 68.28 v 5.949 h 1.004 v -4.363 c 0.148,-0.397 0.483,-0.806 1.115,-0.806 0.273,0 0.446,0.075 0.496,0.1 z m 3.817,0.496 c -0.198,-0.198 -0.595,-0.632 -1.512,-0.632 -0.967,0 -1.723,0.657 -1.723,1.537 0,0.818 0.446,1.301 1.19,1.772 l 0.372,0.236 c 0.57,0.359 0.867,0.557 0.867,1.127 0,0.385 -0.322,0.682 -0.917,0.682 -0.644,0 -1.016,-0.384 -1.202,-0.583 l -0.483,0.794 c 0.235,0.248 0.719,0.681 1.673,0.681 1.215,0 1.896,-0.73 1.896,-1.673 0,-0.88 -0.496,-1.363 -1.301,-1.846 l -0.372,-0.224 c -0.533,-0.322 -0.78,-0.57 -0.78,-1.016 0,-0.347 0.284,-0.632 0.817,-0.632 0.558,0 0.905,0.347 1.041,0.496 z m 5.069,-0.037 c -0.186,-0.21 -0.607,-0.595 -1.512,-0.595 -1.177,0 -2.491,0.83 -2.491,3.11 0,2.33 1.053,3.136 2.38,3.136 0.929,0 1.388,-0.433 1.549,-0.62 l -0.41,-0.693 c -0.123,0.136 -0.433,0.421 -1.04,0.421 -0.856,0 -1.438,-0.57 -1.438,-2.318 0,-1.574 0.67,-2.18 1.524,-2.18 0.595,0 0.905,0.334 1.017,0.445 z m 3.272,0.26 c 0.694,0 1.029,0.41 1.029,1.413 v 3.83 h 1.003 v -3.904 c 0,-1.574 -0.656,-2.194 -1.697,-2.194 -0.955,0 -1.4,0.57 -1.525,0.756 h -0.025 v -3.532 l -1.004,0.111 v 8.763 h 1.004 v -4.586 c 0.199,-0.248 0.608,-0.657 1.215,-0.657 z m 6.754,4.573 h 0.025 v 0.67 h 0.917 v -5.95 h -1.004 v 4.55 c -0.198,0.247 -0.594,0.656 -1.202,0.656 -0.669,0 -0.991,-0.397 -0.991,-1.376 v -3.83 h -1.004 v 3.905 c 0,1.61 0.657,2.193 1.71,2.193 0.905,0 1.438,-0.607 1.55,-0.818 z m 4.698,-4.573 c 0.694,0 1.028,0.41 1.028,1.413 v 3.83 h 1.004 v -3.904 c 0,-1.612 -0.67,-2.194 -1.735,-2.194 -0.93,0 -1.462,0.607 -1.574,0.818 h -0.025 v -0.67 H 92.41 v 5.95 h 1.004 v -4.586 c 0.198,-0.248 0.607,-0.657 1.215,-0.657 z m 6.358,1.14 c 0,0.855 -0.471,1.19 -1.042,1.19 -0.545,0 -1.028,-0.335 -1.028,-1.19 0,-0.855 0.483,-1.19 1.053,-1.19 0.546,0 1.017,0.335 1.017,1.19 z m 1.462,4.561 c 0,-1.128 -0.843,-1.574 -1.97,-1.574 h -0.757 c -0.433,0 -0.607,-0.173 -0.607,-0.421 0,-0.31 0.285,-0.471 0.483,-0.558 0.1,0.012 0.199,0.012 0.31,0.012 1.165,0 2.058,-0.756 2.058,-2.02 0,-0.396 -0.1,-0.768 -0.285,-1.066 h 0.743 l 0.137,-0.78 h -1.81 a 2.1,2.1 0 0 0 -0.793,-0.15 c -1.116,0 -2.02,0.658 -2.02,1.996 0,0.942 0.409,1.537 1.016,1.822 v 0.025 c -0.149,0.074 -0.719,0.322 -0.719,0.967 0,0.371 0.136,0.644 0.384,0.83 v 0.025 c -0.272,0.149 -0.991,0.57 -0.991,1.45 0,1.029 0.682,1.611 1.946,1.611 1.76,0 2.875,-0.892 2.875,-2.169 z m -2.801,1.314 c -0.706,0 -1.053,-0.322 -1.053,-0.954 0,-0.595 0.322,-0.88 0.607,-1.041 0.136,0.024 0.297,0.037 0.458,0.037 h 0.756 c 0.608,0 1.004,0.223 1.004,0.793 0,0.607 -0.557,1.165 -1.772,1.165 z m 3.78,-0.037 c 0.657,-0.236 1.438,-0.769 1.438,-1.897 0,-0.817 -0.335,-1.214 -0.818,-1.214 -0.347,0 -0.645,0.223 -0.645,0.67 0,0.458 0.298,0.706 0.682,0.706 h 0.037 c 0,0.718 -0.384,1.04 -0.905,1.3 z m 9.865,-10.287 h -5.713 v 0.855 h 2.28 v 7.697 h 1.079 v -7.697 h 2.28 z m 1.884,3.272 c 0.632,0 0.967,0.483 0.967,1.301 0,0.186 -0.012,0.347 -0.025,0.434 h -2.156 c 0.05,-1.115 0.508,-1.735 1.214,-1.735 z m 2.008,4.722 -0.372,-0.707 c -0.136,0.137 -0.545,0.521 -1.252,0.521 -1.003,0 -1.549,-0.657 -1.61,-2.045 h 3.036 c 0.037,-0.285 0.074,-0.644 0.074,-1.153 0,-1.425 -0.694,-2.156 -1.822,-2.156 -1.24,0 -2.268,0.942 -2.268,3.049 0,2.243 0.942,3.197 2.442,3.197 1.128,0 1.61,-0.533 1.772,-0.706 z m 4.945,-4.945 c -0.186,-0.21 -0.607,-0.595 -1.512,-0.595 -1.177,0 -2.491,0.83 -2.491,3.11 0,2.33 1.053,3.136 2.38,3.136 0.929,0 1.388,-0.433 1.549,-0.62 l -0.41,-0.693 c -0.123,0.136 -0.433,0.421 -1.04,0.421 -0.856,0 -1.438,-0.57 -1.438,-2.318 0,-1.574 0.67,-2.18 1.524,-2.18 0.595,0 0.905,0.334 1.017,0.445 z m 3.272,0.26 c 0.694,0 1.029,0.41 1.029,1.413 v 3.83 h 1.003 v -3.904 c 0,-1.574 -0.656,-2.194 -1.697,-2.194 -0.955,0 -1.4,0.57 -1.525,0.756 h -0.025 v -3.532 l -1.004,0.111 v 8.763 h 1.004 v -4.586 c 0.199,-0.248 0.608,-0.657 1.215,-0.657 z m 5.75,0 c 0.695,0 1.03,0.41 1.03,1.413 v 3.83 h 1.003 v -3.904 c 0,-1.612 -0.67,-2.194 -1.735,-2.194 -0.93,0 -1.462,0.607 -1.574,0.818 h -0.025 v -0.67 h -0.917 v 5.95 h 1.004 v -4.586 c 0.198,-0.248 0.607,-0.657 1.215,-0.657 z m 3.26,2.268 c 0,2.231 1.004,3.123 2.318,3.123 1.301,0 2.38,-0.904 2.38,-3.123 0,-2.194 -1.005,-3.123 -2.318,-3.123 -1.277,0 -2.38,0.93 -2.38,3.123 z m 3.656,0 c 0,1.574 -0.483,2.231 -1.301,2.231 -0.818,0 -1.314,-0.657 -1.314,-2.23 0,-1.573 0.483,-2.269 1.301,-2.269 0.818,0 1.314,0.694 1.314,2.268 z m 3.297,-5.9 -1.004,0.112 v 7.461 c 0,1.054 0.459,1.413 1.128,1.413 0.446,0 0.706,-0.111 0.805,-0.161 l -0.086,-0.744 c -0.062,0.025 -0.186,0.075 -0.372,0.075 -0.347,0 -0.471,-0.174 -0.471,-0.67 z m 1.561,5.9 c 0,2.231 1.004,3.123 2.318,3.123 1.301,0 2.38,-0.904 2.38,-3.123 0,-2.194 -1.004,-3.123 -2.318,-3.123 -1.276,0 -2.38,0.93 -2.38,3.123 z m 3.657,0 c 0,1.574 -0.484,2.231 -1.302,2.231 -0.818,0 -1.313,-0.657 -1.313,-2.23 0,-1.573 0.483,-2.269 1.3,-2.269 0.819,0 1.315,0.694 1.315,2.268 z m 5.13,-1.128 c 0,0.855 -0.47,1.19 -1.04,1.19 -0.546,0 -1.03,-0.335 -1.03,-1.19 0,-0.855 0.484,-1.19 1.054,-1.19 0.546,0 1.017,0.335 1.017,1.19 z m 1.463,4.561 c 0,-1.128 -0.843,-1.574 -1.97,-1.574 h -0.757 c -0.433,0 -0.607,-0.173 -0.607,-0.421 0,-0.31 0.285,-0.471 0.483,-0.558 0.1,0.012 0.199,0.012 0.31,0.012 1.165,0 2.058,-0.756 2.058,-2.02 0,-0.396 -0.1,-0.768 -0.285,-1.066 h 0.743 l 0.137,-0.78 h -1.81 a 2.1,2.1 0 0 0 -0.793,-0.15 c -1.116,0 -2.02,0.658 -2.02,1.996 0,0.942 0.409,1.537 1.016,1.822 v 0.025 c -0.149,0.074 -0.719,0.322 -0.719,0.967 0,0.371 0.137,0.644 0.384,0.83 v 0.025 c -0.272,0.149 -0.991,0.57 -0.991,1.45 0,1.029 0.682,1.611 1.946,1.611 1.76,0 2.875,-0.892 2.875,-2.169 z m -2.801,1.314 c -0.706,0 -1.053,-0.322 -1.053,-0.954 0,-0.595 0.322,-0.88 0.607,-1.041 0.136,0.024 0.297,0.037 0.458,0.037 h 0.756 c 0.608,0 1.004,0.223 1.004,0.793 0,0.607 -0.557,1.165 -1.772,1.165 z m 4.425,-9.159 c 0.396,0 0.669,-0.297 0.669,-0.719 0,-0.409 -0.273,-0.706 -0.67,-0.706 -0.408,0 -0.681,0.297 -0.681,0.706 0,0.422 0.273,0.719 0.682,0.719 z m 0.495,1.438 h -1.004 v 5.949 h 1.004 z m 3.47,0.669 c 0.633,0 0.967,0.483 0.967,1.301 0,0.186 -0.012,0.347 -0.025,0.434 h -2.156 c 0.05,-1.115 0.508,-1.735 1.215,-1.735 z m 2.008,4.722 -0.372,-0.707 c -0.136,0.137 -0.545,0.521 -1.251,0.521 -1.004,0 -1.55,-0.657 -1.611,-2.045 h 3.036 c 0.037,-0.285 0.074,-0.644 0.074,-1.153 0,-1.425 -0.694,-2.156 -1.822,-2.156 -1.239,0 -2.268,0.942 -2.268,3.049 0,2.243 0.942,3.197 2.442,3.197 1.128,0 1.611,-0.533 1.772,-0.706 z m -115.546,12.282 h 0.026 v 0.67 h 0.917 v -5.95 h -1.004 v 4.549 c -0.199,0.248 -0.595,0.657 -1.202,0.657 -0.67,0 -0.992,-0.397 -0.992,-1.376 v -3.83 h -1.004 v 3.904 c 0,1.611 0.657,2.194 1.71,2.194 0.905,0 1.438,-0.607 1.55,-0.818 z m 4.698,-4.573 c 0.694,0 1.029,0.409 1.029,1.413 v 3.83 h 1.003 v -3.905 c 0,-1.611 -0.669,-2.193 -1.735,-2.193 -0.93,0 -1.462,0.607 -1.574,0.818 h -0.024 v -0.67 h -0.918 v 5.95 h 1.004 v -4.586 c 0.199,-0.248 0.608,-0.657 1.215,-0.657 z m 5.614,4.499 c -0.694,0 -1.314,-0.546 -1.314,-2.182 0,-1.685 0.732,-2.28 1.661,-2.28 0.36,0 0.595,0.099 0.769,0.21 v 3.67 a 1.329,1.329 0 0 1 -1.116,0.582 z m 1.178,0.111 h 0.024 v 0.632 h 0.918 v -8.874 l -1.004,0.112 v 2.85 a 2.23,2.23 0 0 0 -0.843,-0.148 c -1.264,0 -2.628,0.768 -2.628,3.172 0,2.17 0.955,3.037 2.083,3.037 0.941,0 1.338,-0.595 1.45,-0.78 z m 8.787,-5.465 c 0,1.115 -0.62,1.76 -1.921,1.76 h -0.471 v -3.36 h 0.52 c 1.277,0 1.872,0.521 1.872,1.6 z m -2.392,2.615 h 0.47 c 0.199,0 0.397,-0.013 0.583,-0.025 l 1.772,3.507 h 1.265 l -2.008,-3.767 c 0.979,-0.422 1.462,-1.277 1.462,-2.392 0,-1.574 -0.966,-2.392 -3.024,-2.392 h -1.599 v 8.551 h 1.079 z m 7.535,0.136 h -0.31 c -1.35,0 -2.479,0.458 -2.479,1.834 0,0.967 0.682,1.66 1.587,1.66 0.756,0 1.115,-0.507 1.252,-0.805 h 0.024 c 0.013,0.298 0.025,0.484 0.038,0.657 h 0.954 a 10.806,10.806 0 0 1 -0.074,-1.24 v -2.713 c 0,-1.5 -0.645,-2.144 -1.86,-2.144 -0.954,0 -1.524,0.458 -1.784,0.718 l 0.421,0.67 c 0.223,-0.199 0.62,-0.533 1.215,-0.533 0.644,0 1.016,0.322 1.016,1.326 z m 0,0.744 v 1.313 c -0.124,0.186 -0.409,0.583 -0.991,0.583 -0.496,0 -0.794,-0.31 -0.794,-0.917 0,-0.657 0.508,-0.93 1.463,-0.967 z m 5.726,1.933 h 0.025 v 0.67 h 0.917 v -5.95 h -1.004 v 4.549 c -0.198,0.248 -0.595,0.657 -1.202,0.657 -0.67,0 -0.992,-0.397 -0.992,-1.376 v -3.83 h -1.004 v 3.904 c 0,1.611 0.657,2.194 1.71,2.194 0.905,0 1.438,-0.607 1.55,-0.818 z m 4.71,-4.536 c 0.62,0 0.892,0.409 0.892,1.376 v 3.83 h 1.004 v -3.992 a 3.22,3.22 0 0 0 -0.05,-0.62 c 0.223,-0.26 0.595,-0.594 1.14,-0.594 0.67,0 1.029,0.409 1.029,1.376 v 3.83 h 1.004 v -3.992 c 0,-1.412 -0.62,-2.106 -1.81,-2.106 -0.768,0 -1.313,0.458 -1.574,0.793 -0.272,-0.533 -0.768,-0.793 -1.437,-0.793 -0.818,0 -1.326,0.545 -1.488,0.818 h -0.024 v -0.67 h -0.917 v 5.95 h 1.003 v -4.586 c 0.174,-0.211 0.558,-0.62 1.227,-0.62 z m 9.022,0.074 0.124,-0.818 H 88.89 v -1.065 c 0,-0.78 0.26,-1.04 0.732,-1.04 0.26,0 0.446,0.099 0.545,0.16 l 0.21,-0.83 a 1.695,1.695 0 0 0 -0.842,-0.223 c -0.88,0 -1.648,0.52 -1.648,1.822 v 1.19 l -0.72,0.136 v 0.67 h 0.72 v 5.13 h 1.003 v -5.13 z m 3.371,1.785 h -0.31 c -1.35,0 -2.479,0.458 -2.479,1.834 0,0.967 0.682,1.66 1.587,1.66 0.756,0 1.115,-0.507 1.252,-0.805 h 0.024 c 0.013,0.298 0.025,0.484 0.038,0.657 h 0.954 a 10.806,10.806 0 0 1 -0.074,-1.24 v -2.713 c 0,-1.5 -0.645,-2.144 -1.86,-2.144 -0.954,0 -1.524,0.458 -1.784,0.718 l 0.421,0.67 c 0.223,-0.199 0.62,-0.533 1.215,-0.533 0.644,0 1.016,0.322 1.016,1.326 z m 0,0.744 v 1.313 c -0.124,0.186 -0.409,0.583 -0.991,0.583 -0.496,0 -0.794,-0.31 -0.794,-0.917 0,-0.657 0.508,-0.93 1.463,-0.967 z m 4.722,-2.64 c 0.694,0 1.029,0.409 1.029,1.413 v 3.83 h 1.004 v -3.905 c 0,-1.574 -0.657,-2.193 -1.698,-2.193 -0.955,0 -1.4,0.57 -1.525,0.756 h -0.025 v -3.533 l -1.003,0.112 v 8.762 h 1.003 v -4.584 c 0.199,-0.248 0.608,-0.657 1.215,-0.657 z m 6.271,-0.72 c -0.099,-0.036 -0.26,-0.098 -0.545,-0.098 -0.756,0 -1.078,0.446 -1.252,0.917 h -0.025 v -0.806 h -0.917 v 5.95 h 1.004 v -4.363 c 0.149,-0.397 0.483,-0.806 1.115,-0.806 0.273,0 0.447,0.074 0.496,0.1 z m 3.57,5.85 -0.137,-0.805 c -0.099,0.062 -0.322,0.174 -0.62,0.174 -0.508,0 -0.706,-0.248 -0.706,-1.091 v -3.297 h 1.301 l 0.124,-0.818 h -1.424 v -1.66 h -0.892 l -0.112,1.66 -0.719,0.149 v 0.67 h 0.72 v 3.432 c 0,1.314 0.52,1.847 1.536,1.847 0.533,0 0.843,-0.198 0.93,-0.26 z"
     id="path4" />
</svg>
