<?xml version="1.0" encoding="UTF-8" standalone="no"?>
<svg
   viewBox="0 0 24 24"
   width="24"
   height="24"
   version="1.1"
   id="svg4"
   sodipodi:docname="processing_collapse.svg"
   inkscape:version="1.2.1 (9c6d41e410, 2022-07-14)"
   xmlns:inkscape="http://www.inkscape.org/namespaces/inkscape"
   xmlns:sodipodi="http://sodipodi.sourceforge.net/DTD/sodipodi-0.dtd"
   xmlns="http://www.w3.org/2000/svg"
   xmlns:svg="http://www.w3.org/2000/svg">
  <defs
     id="defs8" />
  <sodipodi:namedview
     id="namedview6"
     pagecolor="#ffffff"
     bordercolor="#111111"
     borderopacity="1"
     inkscape:showpageshadow="0"
     inkscape:pageopacity="0"
     inkscape:pagecheckerboard="1"
     inkscape:deskcolor="#d1d1d1"
     showgrid="false"
     inkscape:zoom="24.660349"
     inkscape:cx="2.5547084"
     inkscape:cy="11.029852"
     inkscape:window-width="1920"
     inkscape:window-height="1017"
     inkscape:window-x="-8"
     inkscape:window-y="-8"
     inkscape:window-maximized="1"
     inkscape:current-layer="svg4" />
  <path
     d="M11.158 1.5l-.803 2.234.012.13.39 1.94-2.26.934-1.095-1.646-.084-.098L5.17 3.98 3.98 5.17l1.014 2.148.098.084 1.646 1.096-.935 2.258-1.94-.39-.13-.01-2.233.802v1.684l2.234.803.13-.012 1.94-.39.934 2.26-1.646 1.095-.098.084L3.98 18.83l1.19 1.19 2.148-1.014.084-.098 1.096-1.646 2.258.935-.39 1.94-.01.13.802 2.233h1.684l.803-2.234-.012-.13-.39-1.94 2.26-.934 1.095 1.646.084.098 2.148 1.014 1.19-1.19-1.014-2.148-.098-.084-1.646-1.096.935-2.258 1.94.39.13.01 2.233-.802v-1.684l-2.234-.803-.13.012-1.94.39-.934-2.26 1.646-1.095.098-.084L20.02 5.17l-1.19-1.19-2.148 1.014-.084.098-1.096 1.646-2.258-.935.39-1.94.01-.13-.802-2.233h-1.684zm.842 8a2.5 2.5 0 0 1 2.5 2.5 2.5 2.5 0 0 1-2.5 2.5A2.5 2.5 0 0 1 9.5 12 2.5 2.5 0 0 1 12 9.5z"
     fill="#98b5d8"
     stroke="#457abe"
     id="path2" />
  <path
     d="m 13.725419,15.429948 h 9.027931 v 0.874889 l -4.49408,5.448573 -4.533851,-5.448573 z"
     fill="#0a0a0a"
     fill-opacity="0.945098"
     id="path114"
     style="fill:#292929;fill-opacity:0.85;stroke-width:0.644851" />
  <path
     d="m 14.958308,16.344613 h 6.641693 l -3.340731,4.016823 z"
     fill="#484848"
     id="path116"
     style="fill:#292929;fill-opacity:0.85;stroke-width:0.644851" />
</svg>
